<svg width="915" height="521" viewBox="0 0 915 521" fill="none" xmlns="http://www.w3.org/2000/svg">
<path d="M781.415 133.37C748.142 100.189 702.936 82 653.979 82C651.59 82 649.246 82 646.932 82.1056H646.569C592.802 83.463 548.534 99.5105 511.223 131.168C490.14 149.056 473.126 170.382 458.122 192.493C442.923 170.216 425.712 148.754 404.553 130.912C367.318 99.4803 323.186 83.5082 269.707 82.1056H268.194C266.122 82.1056 264.035 82.0302 261.933 82.0302C213.264 82.0302 168.164 100.129 135.027 132.872C101.89 165.616 83.4084 210.365 83 258.794V258.96C83 259.322 83 259.699 83 260.061V260.694L84.83 286.983C89.9251 325.032 107.375 360.371 134.513 387.597C167.786 420.777 212.991 438.967 261.963 438.967C264.353 438.967 266.697 438.967 269.026 438.861H269.374C323.14 437.504 367.408 421.456 404.719 389.799C414.119 381.774 422.896 373.052 430.975 363.706L435.754 358.096C443.664 348.564 450.878 338.609 457.82 328.474C473.02 350.751 490.216 372.213 511.374 390.04C548.958 421.713 593.543 437.745 647.673 438.891H648.005C649.971 438.891 651.968 438.891 653.979 438.891C702.649 438.891 747.749 420.793 780.885 388.049C814.022 355.305 832.504 310.556 832.912 262.248V262.067C832.912 261.675 832.912 261.283 832.912 260.906V260.468C832.927 211.632 814.643 166.491 781.415 133.37ZM653.979 367.899C652.27 367.899 650.592 367.899 648.928 367.824C574.366 366.044 539.475 324.568 499.85 260.468C538.915 196.64 573.474 155.36 648.066 153.203C650.032 153.203 652.013 153.113 653.934 153.098H654.327H655.688C685.649 153.49 712.721 164.379 731.929 183.79C751.136 203.201 761.648 230.304 761.693 260.257V260.679C761.693 260.996 761.693 261.328 761.693 261.66C761.421 291.658 750.531 318.776 731.052 338.021C711.572 357.266 684.152 367.899 653.979 367.899ZM261.963 153.037C263.687 153.037 265.366 153.037 267.03 153.037C341.546 154.893 376.468 196.369 416.093 260.468C377.012 324.296 342.454 365.576 267.877 367.733C265.911 367.733 263.944 367.824 262.024 367.824H261.615H260.269C230.309 367.447 203.236 356.542 184.029 337.146C164.821 317.751 154.31 290.633 154.25 260.725V260.212C154.25 259.895 154.25 259.593 154.25 259.277C154.522 229.278 165.411 202.16 184.891 182.915C204.371 163.67 231.791 153.037 261.963 153.037Z" fill="#EA3375"/>
<path d="M648.02 153.143C649.987 153.143 651.968 153.052 653.888 153.037H654.282H655.643C685.604 153.43 712.676 164.319 731.883 183.73C751.091 203.141 761.648 230.304 761.693 260.257V260.468H832.927C832.927 211.632 814.642 166.491 781.415 133.37C748.187 100.25 703.011 82 653.979 82C651.59 82 649.245 82 646.931 82.1056H646.569C592.802 83.463 548.534 99.5105 511.223 131.168C490.14 149.056 473.126 170.382 458.122 192.493L416.093 260.468C377.012 324.296 342.454 365.576 267.877 367.733C265.911 367.733 263.944 367.824 262.024 367.824H261.615H260.269C230.309 367.447 203.236 356.542 184.029 337.146C164.821 317.751 154.31 290.633 154.25 260.725V260.468H83V260.664L84.83 286.953C89.9251 325.002 107.375 360.341 134.513 387.566C167.786 420.747 212.991 438.936 261.963 438.936C264.353 438.936 266.697 438.937 269.026 438.831H269.374C323.14 437.474 367.408 421.426 404.719 389.768C414.119 381.744 422.896 373.022 430.975 363.676L435.754 358.065C443.664 348.534 450.878 338.579 457.82 328.444L499.85 260.468C538.915 196.58 573.474 155.3 648.02 153.143Z" fill="#2B064F"/>
<path d="M264.413 367.854H262.084H261.676H260.33C230.369 367.477 203.297 356.572 184.089 337.177C164.882 317.781 154.31 290.633 154.25 260.725V260.212C154.25 259.895 154.25 259.593 154.25 259.277C154.522 229.278 165.411 202.16 184.891 182.915C204.371 163.67 231.776 153.037 261.933 153.037H264.353V82H261.933C213.264 82 168.164 100.099 135.027 132.842C101.89 165.586 83.4084 210.335 83 258.764V258.96C83 259.322 83 259.699 83 260.061V260.694L84.83 286.983C89.9251 325.032 107.375 360.371 134.513 387.597C167.786 420.777 212.991 438.967 261.963 438.967H264.383L264.413 367.854Z" fill="#E52451"/>
<path d="M264.413 367.854H262.084H261.676H260.33C230.369 367.477 203.297 356.572 184.089 337.177C164.882 317.781 154.31 290.633 154.25 260.725V260.468H83V260.664L84.83 286.953C89.9251 325.002 107.375 360.341 134.513 387.566C167.786 420.747 212.991 438.937 261.963 438.937H264.383L264.413 367.854Z" fill="#951936"/>
<path d="M651.59 367.854H653.919H654.327H655.673C685.634 367.477 712.706 356.572 731.914 337.177C751.121 317.781 761.632 290.633 761.693 260.725V260.212C761.693 259.895 761.693 259.593 761.693 259.277C761.421 229.278 750.531 202.16 731.052 182.915C711.572 163.67 684.167 153.037 654.01 153.037H651.59V82H654.01C702.679 82 747.779 100.099 780.916 132.842C814.053 165.586 832.534 210.335 832.942 258.764V260.664L831.113 286.953C826.023 325.001 808.578 360.34 781.445 387.566C748.172 420.747 702.966 438.936 653.994 438.936H651.575L651.59 367.854Z" fill="#4B0491"/>
<g filter="url(#filter0_i)">
<path d="M651.59 367.854H653.919H654.327H655.673C685.634 367.477 712.706 356.572 731.914 337.177C751.121 317.781 761.632 290.633 761.693 260.725V260.468H832.927V260.664L831.097 286.953C826.007 325.001 808.562 360.34 781.43 387.566C748.157 420.747 702.951 438.937 653.979 438.937H651.559L651.59 367.854Z" fill="#751B9F"/>
</g>
<path d="M511.374 390.009C548.958 421.682 593.543 437.714 647.672 438.861H648.005H651.423V367.854H648.928C574.548 366.044 539.641 324.764 500.122 260.77H499.88L457.85 328.489C473.02 350.72 490.216 372.167 511.374 390.009Z" fill="#8D1276"/>
<path d="M499.925 260.212L458.092 192.598L416.093 260.468C377.012 324.296 342.454 365.576 267.877 367.733H264.353V438.71C318.104 437.353 367.378 421.305 404.689 389.648C414.089 381.624 422.866 372.901 430.944 363.555L435.724 357.945L436.147 357.417C453.481 339.443 493.165 270.166 499.925 260.212Z" fill="#5A0949"/>
<path d="M334.56 135.758C333.889 135.571 333.324 135.296 332.865 134.932C332.405 134.568 332.055 134.128 331.812 133.613C331.582 133.101 331.455 132.53 331.431 131.901C331.411 131.261 331.503 130.577 331.706 129.85C331.91 129.122 332.185 128.495 332.532 127.969C332.879 127.443 333.282 127.026 333.743 126.719C334.218 126.402 334.746 126.207 335.328 126.132C335.91 126.057 336.537 126.113 337.208 126.3C338.122 126.554 338.817 126.965 339.294 127.533C339.783 128.104 340.06 128.785 340.125 129.575L338.075 129.883C338.078 129.473 337.968 129.106 337.747 128.783C337.54 128.452 337.194 128.219 336.708 128.084C336.084 127.91 335.56 127.977 335.138 128.282C334.727 128.591 334.433 129.064 334.255 129.699L333.794 131.344C333.616 131.98 333.623 132.535 333.814 133.011C334.019 133.479 334.435 133.8 335.059 133.974C335.592 134.122 336.039 134.103 336.403 133.918C336.77 133.721 337.091 133.443 337.366 133.084L338.839 134.37C338.315 135.084 337.69 135.557 336.963 135.791C336.24 136.013 335.439 136.002 334.56 135.758Z" fill="#F2F2F2"/>
<path d="M349.382 141.237C348.776 140.945 348.28 140.579 347.893 140.14C347.517 139.705 347.25 139.21 347.092 138.655C346.946 138.105 346.911 137.515 346.989 136.887C347.073 136.248 347.279 135.588 347.609 134.908C347.939 134.228 348.327 133.663 348.772 133.211C349.218 132.76 349.7 132.427 350.218 132.211C350.753 131.989 351.307 131.89 351.883 131.914C352.469 131.944 353.064 132.104 353.67 132.396C354.275 132.688 354.772 133.054 355.159 133.494C355.546 133.933 355.813 134.428 355.959 134.978C356.122 135.523 356.164 136.109 356.086 136.738C356.008 137.366 355.804 138.02 355.475 138.7C355.145 139.38 354.754 139.951 354.304 140.413C353.858 140.864 353.368 141.201 352.834 141.423C352.31 141.65 351.755 141.748 351.169 141.719C350.583 141.69 349.987 141.529 349.382 141.237ZM350.191 139.569C350.742 139.835 351.256 139.876 351.732 139.693C352.207 139.509 352.602 139.094 352.917 138.446L353.678 136.875C353.987 136.239 354.066 135.677 353.915 135.191C353.764 134.706 353.412 134.33 352.861 134.064C352.32 133.803 351.812 133.765 351.336 133.948C350.86 134.132 350.468 134.542 350.159 135.179L349.397 136.749C349.083 137.397 349.002 137.964 349.153 138.45C349.304 138.935 349.65 139.309 350.191 139.569Z" fill="#F2F2F2"/>
<path d="M366.64 149.597L366.567 149.544C366.111 149.879 365.598 150.038 365.028 150.022C364.459 150.006 363.923 149.813 363.42 149.444C362.462 148.741 361.981 147.858 361.974 146.796C361.977 145.742 362.449 144.577 363.39 143.302C364.324 142.037 365.292 141.251 366.294 140.944C367.312 140.635 368.3 140.832 369.258 141.535C369.76 141.904 370.104 142.358 370.289 142.895C370.481 143.423 370.484 143.954 370.299 144.488L370.371 144.542L373.621 140.138L375.478 141.502L367.566 152.221L365.709 150.857L366.64 149.597ZM365.148 148.345C365.593 148.672 366.043 148.839 366.5 148.847C366.957 148.854 367.331 148.66 367.623 148.264L369.398 145.86C369.669 145.493 369.736 145.088 369.601 144.646C369.465 144.204 369.174 143.819 368.73 143.493C368.246 143.138 367.733 143.014 367.191 143.122C366.666 143.228 366.204 143.551 365.804 144.092L364.842 145.396C364.443 145.937 364.271 146.473 364.326 147.004C364.39 147.543 364.664 147.99 365.148 148.345Z" fill="#F2F2F2"/>
<path d="M376.62 160.89C376.145 160.383 375.802 159.85 375.591 159.292C375.398 158.734 375.323 158.172 375.368 157.606C375.43 157.039 375.61 156.477 375.91 155.919C376.218 155.352 376.649 154.811 377.202 154.295C377.746 153.787 378.303 153.398 378.874 153.129C379.452 152.868 380.022 152.73 380.583 152.714C381.154 152.69 381.707 152.798 382.243 153.036C382.787 153.265 383.293 153.63 383.761 154.128C384.261 154.662 384.604 155.212 384.789 155.778C384.973 156.343 385.027 156.901 384.948 157.449C384.87 157.998 384.678 158.53 384.371 159.046C384.082 159.562 383.7 160.041 383.226 160.484L382.673 161L378.404 156.446L378.232 156.606C377.732 157.073 377.459 157.589 377.415 158.156C377.379 158.715 377.619 159.269 378.136 159.821C378.529 160.241 378.937 160.5 379.359 160.599C379.789 160.706 380.238 160.738 380.707 160.694L380.542 162.545C379.884 162.634 379.212 162.54 378.524 162.263C377.854 161.987 377.219 161.529 376.62 160.89ZM382.521 155.334C382.103 154.888 381.622 154.673 381.077 154.689C380.533 154.705 380.023 154.934 379.549 155.377L379.444 155.475L382.077 158.284L382.195 158.173C382.669 157.731 382.94 157.256 383.009 156.75C383.094 156.244 382.932 155.772 382.521 155.334Z" fill="#F2F2F2"/>
<path d="M134.83 177.023L136.026 175.055L140.706 177.893L140.744 177.831C140.369 177.408 140.17 176.915 140.146 176.354C140.112 175.786 140.257 175.235 140.581 174.702C141.204 173.677 142.042 173.119 143.095 173.028C144.143 172.92 145.34 173.274 146.684 174.089C148.039 174.911 148.916 175.814 149.314 176.8C149.719 177.775 149.609 178.775 148.986 179.8C148.662 180.333 148.24 180.715 147.72 180.947C147.206 181.169 146.672 181.216 146.116 181.09L146.079 181.151L147.418 181.964L146.222 183.932L134.83 177.023ZM146.971 179.441C147.283 178.928 147.366 178.41 147.22 177.887C147.075 177.364 146.715 176.928 146.14 176.579L144.755 175.739C144.18 175.39 143.627 175.272 143.095 175.385C142.553 175.491 142.126 175.8 141.814 176.313C141.528 176.785 141.406 177.251 141.449 177.712C141.498 178.162 141.717 178.506 142.107 178.743L144.663 180.293C145.083 180.548 145.5 180.59 145.913 180.419C146.332 180.239 146.685 179.912 146.971 179.441Z" fill="#F2F2F2"/>
<path d="M157.562 164.917L157.505 164.987C157.636 165.204 157.739 165.437 157.814 165.686C157.888 165.917 157.92 166.17 157.912 166.443C157.912 166.707 157.853 166.985 157.736 167.278C157.626 167.561 157.449 167.85 157.205 168.146C156.585 168.895 155.866 169.266 155.047 169.259C154.227 169.251 153.364 168.873 152.457 168.125L147.875 164.344L149.343 162.569L153.744 166.201C154.244 166.613 154.709 166.833 155.138 166.86C155.557 166.88 155.943 166.677 156.295 166.252C156.44 166.076 156.558 165.886 156.65 165.681C156.749 165.467 156.806 165.258 156.82 165.052C156.825 164.838 156.793 164.633 156.723 164.435C156.643 164.229 156.507 164.047 156.312 163.886L151.522 159.933L152.99 158.158L160.238 164.139L158.77 165.914L157.562 164.917Z" fill="#F2F2F2"/>
<path d="M159.514 149.445C159.167 149.776 158.84 149.938 158.535 149.932C158.238 149.916 157.973 149.787 157.741 149.545L157.492 149.285C157.26 149.042 157.143 148.772 157.141 148.475C157.148 148.17 157.325 147.851 157.672 147.52C158.011 147.197 158.333 147.039 158.638 147.045C158.944 147.052 159.213 147.177 159.445 147.42L159.694 147.68C159.926 147.923 160.039 148.197 160.032 148.502C160.025 148.807 159.852 149.122 159.514 149.445ZM159.626 151.229L161.293 149.638L167.788 156.426L166.122 158.017L159.626 151.229Z" fill="#F2F2F2"/>
<path d="M175.56 149.781C174.937 150.272 174.358 150.476 173.82 150.396C173.282 150.315 172.79 149.993 172.344 149.428L165.497 140.754L167.307 139.328L174.422 148.341L175.398 147.572L176.535 149.013L175.56 149.781Z" fill="#F2F2F2"/>
<path d="M186.935 140.142L186.858 140.188C186.995 140.737 186.947 141.271 186.715 141.79C186.483 142.31 186.1 142.731 185.567 143.055C184.551 143.671 183.549 143.78 182.563 143.382C181.587 142.978 180.688 142.1 179.865 140.746C179.049 139.403 178.689 138.211 178.787 137.17C178.888 136.112 179.447 135.275 180.463 134.659C180.997 134.335 181.548 134.19 182.117 134.224C182.679 134.248 183.172 134.447 183.596 134.821L183.673 134.775L180.832 130.1L182.802 128.905L189.719 140.284L187.748 141.479L186.935 140.142ZM185.207 141.042C185.679 140.756 186.006 140.404 186.187 139.985C186.368 139.567 186.331 139.147 186.075 138.727L184.524 136.174C184.287 135.785 183.938 135.568 183.476 135.526C183.015 135.483 182.548 135.604 182.076 135.891C181.563 136.202 181.253 136.628 181.147 137.17C181.044 137.695 181.168 138.244 181.517 138.819L182.358 140.203C182.707 140.777 183.138 141.14 183.652 141.291C184.175 141.436 184.694 141.354 185.207 141.042Z" fill="#F2F2F2"/>
<path d="M144.294 350.591C143.924 349.891 143.822 349.26 143.987 348.698C144.169 348.142 144.599 347.685 145.279 347.327L149.852 344.92L149.205 343.694L150.83 342.839L151.166 343.475C151.329 343.783 151.507 343.953 151.701 343.987C151.911 344.025 152.16 343.969 152.447 343.818L153.865 343.072L154.83 344.902L152.552 346.101L153.45 347.804L151.825 348.66L150.927 346.957L145.86 349.624L146.691 351.2L145.066 352.055L144.294 350.591Z" fill="#F2F2F2"/>
<path d="M151.613 362.001C151.172 361.463 150.866 360.908 150.693 360.336C150.537 359.767 150.5 359.201 150.582 358.638C150.681 358.077 150.898 357.527 151.234 356.99C151.579 356.445 152.044 355.933 152.63 355.455C153.206 354.985 153.788 354.634 154.374 354.403C154.968 354.181 155.545 354.081 156.106 354.104C156.677 354.118 157.221 354.262 157.74 354.536C158.267 354.802 158.748 355.2 159.181 355.729C159.645 356.295 159.95 356.867 160.096 357.445C160.243 358.022 160.259 358.582 160.145 359.124C160.031 359.667 159.804 360.185 159.464 360.68C159.141 361.176 158.729 361.629 158.227 362.039L157.641 362.517L153.686 357.683L153.504 357.831C152.975 358.264 152.669 358.762 152.586 359.325C152.513 359.88 152.716 360.45 153.195 361.035C153.56 361.481 153.949 361.767 154.363 361.894C154.784 362.03 155.231 362.092 155.701 362.079L155.414 363.917C154.752 363.961 154.088 363.822 153.421 363.5C152.77 363.179 152.168 362.679 151.613 362.001ZM157.865 356.85C157.478 356.376 157.012 356.129 156.468 356.109C155.924 356.088 155.401 356.283 154.899 356.693L154.787 356.784L157.227 359.765L157.352 359.662C157.854 359.252 158.156 358.797 158.257 358.296C158.376 357.796 158.245 357.314 157.865 356.85Z" fill="#F2F2F2"/>
<path d="M163.056 373.392C162.351 372.833 161.851 372.245 161.558 371.63C161.273 371.006 161.115 370.337 161.084 369.623L163.035 369.425C163.062 369.951 163.164 370.43 163.342 370.862C163.529 371.302 163.834 371.689 164.257 372.025C164.69 372.368 165.06 372.539 165.367 372.538C165.684 372.544 165.947 372.415 166.156 372.152C166.328 371.936 166.392 371.711 166.348 371.477C166.321 371.242 166.161 370.97 165.869 370.662L165.214 369.981C164.497 369.244 164.065 368.534 163.918 367.851C163.788 367.166 163.992 366.485 164.529 365.809C164.813 365.452 165.132 365.185 165.488 365.007C165.851 364.821 166.233 364.725 166.635 364.722C167.043 364.709 167.458 364.785 167.879 364.951C168.316 365.114 168.747 365.363 169.17 365.699C169.527 365.982 169.82 366.26 170.048 366.533C170.292 366.803 170.487 367.08 170.63 367.362C170.781 367.635 170.891 367.921 170.96 368.221C171.036 368.511 171.092 368.816 171.129 369.136L169.231 369.354C169.194 368.957 169.085 368.564 168.903 368.175C168.722 367.786 168.452 367.45 168.095 367.167C167.7 366.853 167.357 366.696 167.067 366.696C166.786 366.702 166.555 366.818 166.376 367.044C166.182 367.288 166.103 367.532 166.14 367.775C166.193 368.017 166.372 368.303 166.675 368.636L167.344 369.327C168.754 370.813 168.974 372.166 168.003 373.387C167.72 373.744 167.383 374.013 166.994 374.195C166.621 374.374 166.218 374.467 165.783 374.475C165.355 374.472 164.905 374.383 164.431 374.207C163.975 374.029 163.517 373.757 163.056 373.392Z" fill="#F2F2F2"/>
<path d="M175.424 381.151C174.723 380.781 174.282 380.319 174.101 379.762C173.935 379.201 174.032 378.58 174.39 377.901L176.8 373.334L175.573 372.688L176.43 371.065L177.067 371.4C177.375 371.562 177.619 371.602 177.798 371.52C177.993 371.433 178.166 371.247 178.317 370.96L179.064 369.544L180.897 370.508L179.696 372.784L181.401 373.682L180.544 375.305L178.839 374.407L176.169 379.468L177.746 380.299L176.89 381.922L175.424 381.151Z" fill="#F2F2F2"/>
<path d="M325.714 397.631L323.384 388.532L325.618 387.962L326.1 389.844L326.187 389.822C326.183 389.563 326.21 389.308 326.27 389.058C326.338 388.793 326.449 388.548 326.602 388.323C326.755 388.098 326.952 387.899 327.193 387.727C327.445 387.551 327.752 387.417 328.112 387.325L328.601 387.2L329.141 389.309L328.443 389.487C327.687 389.68 327.145 389.936 326.818 390.255C326.491 390.574 326.391 390.983 326.519 391.483L327.947 397.061L325.714 397.631Z" fill="#F2F2F2"/>
<path d="M342.438 392.735C341.788 392.985 341.165 393.103 340.567 393.088C339.977 393.058 339.427 392.916 338.917 392.661C338.415 392.392 337.96 392.014 337.554 391.527C337.144 391.029 336.803 390.428 336.531 389.723C336.264 389.028 336.112 388.367 336.076 387.738C336.05 387.105 336.136 386.526 336.333 386.001C336.525 385.465 336.832 384.993 337.254 384.587C337.672 384.169 338.2 383.838 338.839 383.592C339.522 383.33 340.162 383.219 340.756 383.26C341.351 383.302 341.889 383.462 342.369 383.74C342.849 384.018 343.271 384.396 343.635 384.873C344.005 385.334 344.307 385.868 344.54 386.472L344.812 387.177L338.98 389.418L339.064 389.636C339.31 390.274 339.687 390.72 340.197 390.975C340.702 391.217 341.308 391.203 342.014 390.932C342.551 390.726 342.945 390.446 343.195 390.093C343.456 389.735 343.654 389.331 343.79 388.881L345.447 389.729C345.283 390.37 344.943 390.957 344.428 391.489C343.919 392.006 343.256 392.421 342.438 392.735ZM339.494 385.191C338.922 385.411 338.542 385.776 338.352 386.285C338.163 386.795 338.184 387.352 338.417 387.957L338.469 388.091L342.066 386.71L342.007 386.558C341.774 385.954 341.436 385.525 340.991 385.272C340.553 385.003 340.054 384.976 339.494 385.191Z" fill="#F2F2F2"/>
<path d="M356.244 386.315C355.54 386.678 354.932 386.769 354.42 386.587C353.907 386.406 353.486 385.995 353.156 385.355L348.086 375.536L350.135 374.481L355.402 384.684L356.507 384.115L357.349 385.747L356.244 386.315Z" fill="#F2F2F2"/>
<path d="M367.603 379.911C367.023 380.295 366.439 380.544 365.853 380.659C365.27 380.757 364.702 380.737 364.15 380.598C363.601 380.444 363.076 380.172 362.574 379.785C362.065 379.388 361.602 378.874 361.185 378.244C360.773 377.624 360.482 377.011 360.311 376.405C360.149 375.792 360.108 375.208 360.186 374.653C360.257 374.088 360.455 373.561 360.78 373.073C361.097 372.575 361.542 372.137 362.112 371.76C362.723 371.356 363.323 371.11 363.912 371.022C364.502 370.934 365.061 370.974 365.59 371.142C366.119 371.31 366.613 371.588 367.071 371.975C367.533 372.346 367.943 372.801 368.301 373.342L368.719 373.972L363.51 377.418L363.639 377.613C364.017 378.183 364.482 378.537 365.034 378.675C365.58 378.803 366.168 378.659 366.799 378.242C367.279 377.924 367.603 377.566 367.771 377.167C367.949 376.762 368.055 376.325 368.089 375.856L369.891 376.326C369.869 376.987 369.664 377.634 369.276 378.265C368.892 378.879 368.334 379.428 367.603 379.911ZM363.097 373.18C362.587 373.518 362.294 373.956 362.219 374.495C362.144 375.033 362.286 375.573 362.644 376.113L362.724 376.233L365.936 374.107L365.847 373.972C365.489 373.432 365.065 373.087 364.576 372.935C364.091 372.768 363.597 372.849 363.097 373.18Z" fill="#F2F2F2"/>
<path d="M383.209 367.641C382.828 367.97 382.43 368.125 382.015 368.103C381.6 368.065 381.205 367.884 380.828 367.559L380.746 367.63C381.029 368.194 381.092 368.752 380.933 369.301C380.767 369.842 380.416 370.344 379.881 370.807C379.155 371.436 378.432 371.728 377.712 371.685C376.991 371.642 376.356 371.303 375.805 370.669C375.168 369.934 374.959 369.163 375.179 368.354C375.391 367.536 375.982 366.706 376.952 365.866L378.164 364.818L377.715 364.301C377.369 363.902 376.998 363.684 376.6 363.647C376.203 363.61 375.773 363.792 375.31 364.193C374.902 364.546 374.649 364.923 374.553 365.324C374.457 365.709 374.429 366.098 374.469 366.492L372.633 366.462C372.542 365.827 372.608 365.198 372.831 364.576C373.047 363.946 373.513 363.32 374.229 362.7C375.191 361.867 376.11 361.453 376.986 361.456C377.863 361.459 378.655 361.869 379.363 362.685L382.265 366.03L382.972 365.417L384.176 366.804L383.209 367.641ZM379.369 369.036C379.759 368.699 380.015 368.326 380.138 367.918C380.261 367.51 380.177 367.139 379.886 366.803L379.072 365.865L377.956 366.831C377.049 367.616 376.847 368.299 377.35 368.879L377.551 369.11C377.802 369.4 378.082 369.539 378.389 369.527C378.698 369.498 379.024 369.335 379.369 369.036Z" fill="#F2F2F2"/>
<path d="M392.49 358.677C391.885 359.344 391.267 359.803 390.633 360.055C389.991 360.299 389.312 360.413 388.597 360.398L388.525 358.44C389.053 358.448 389.538 358.377 389.981 358.228C390.432 358.07 390.839 357.79 391.202 357.39C391.572 356.982 391.767 356.624 391.786 356.317C391.812 356.002 391.701 355.731 391.452 355.506C391.247 355.321 391.026 355.242 390.79 355.271C390.552 355.283 390.271 355.424 389.944 355.695L389.222 356.304C388.439 356.971 387.702 357.355 387.01 357.457C386.317 357.543 385.65 357.295 385.009 356.716C384.671 356.41 384.425 356.074 384.271 355.708C384.107 355.334 384.037 354.947 384.06 354.546C384.073 354.138 384.176 353.73 384.368 353.321C384.56 352.896 384.837 352.483 385.199 352.083C385.505 351.745 385.802 351.471 386.089 351.262C386.375 351.036 386.664 350.86 386.955 350.735C387.238 350.602 387.531 350.511 387.834 350.463C388.129 350.406 388.437 350.369 388.76 350.353L388.855 352.259C388.456 352.27 388.056 352.354 387.656 352.509C387.256 352.665 386.902 352.912 386.596 353.249C386.258 353.623 386.079 353.954 386.059 354.244C386.048 354.525 386.149 354.762 386.362 354.955C386.594 355.164 386.832 355.259 387.078 355.238C387.322 355.2 387.621 355.041 387.972 354.761L388.706 354.139C390.281 352.83 391.648 352.698 392.805 353.745C393.143 354.051 393.39 354.404 393.546 354.804C393.701 355.187 393.768 355.595 393.748 356.029C393.718 356.455 393.6 356.898 393.393 357.359C393.186 357.802 392.885 358.241 392.49 358.677Z" fill="#F2F2F2"/>
<path d="M402.156 346.7C401.755 347.268 401.302 347.712 400.797 348.031C400.289 348.333 399.753 348.52 399.188 348.591C398.62 348.646 398.032 348.584 397.424 348.404C396.806 348.218 396.188 347.907 395.57 347.471C394.962 347.042 394.468 346.576 394.088 346.073C393.715 345.561 393.465 345.031 393.336 344.486C393.198 343.933 393.191 343.37 393.316 342.798C393.432 342.219 393.687 341.65 394.081 341.092C394.504 340.494 394.974 340.048 395.491 339.752C396.009 339.457 396.545 339.291 397.099 339.256C397.653 339.221 398.213 339.301 398.781 339.496C399.346 339.675 399.893 339.951 400.423 340.324L401.041 340.76L397.437 345.859L397.628 345.994C398.187 346.388 398.749 346.55 399.314 346.479C399.869 346.4 400.365 346.053 400.801 345.436C401.133 344.965 401.305 344.514 401.317 344.082C401.335 343.64 401.276 343.194 401.138 342.744L402.987 342.53C403.207 343.155 403.251 343.831 403.118 344.56C402.982 345.271 402.662 345.985 402.156 346.7ZM395.515 342.059C395.161 342.558 395.048 343.073 395.174 343.602C395.299 344.131 395.627 344.582 396.157 344.956L396.274 345.039L398.497 341.895L398.365 341.801C397.835 341.427 397.315 341.259 396.804 341.295C396.291 341.314 395.861 341.569 395.515 342.059Z" fill="#F2F2F2"/>
<path d="M533.083 169.161L533.029 169.232C533.355 169.694 533.505 170.209 533.478 170.777C533.451 171.345 533.247 171.877 532.868 172.372C532.145 173.314 531.252 173.779 530.188 173.766C529.132 173.743 527.975 173.25 526.716 172.288C525.467 171.332 524.699 170.352 524.411 169.346C524.121 168.324 524.337 167.341 525.06 166.399C525.439 165.903 525.9 165.569 526.442 165.394C526.975 165.213 527.507 165.219 528.038 165.414L528.092 165.343L523.745 162.017L525.146 160.189L535.729 168.285L534.328 170.113L533.083 169.161ZM531.801 170.627C532.137 170.189 532.313 169.742 532.329 169.286C532.346 168.831 532.159 168.453 531.768 168.154L529.394 166.338C529.032 166.061 528.628 165.986 528.182 166.114C527.737 166.241 527.346 166.524 527.01 166.962C526.645 167.438 526.512 167.947 526.61 168.49C526.705 169.017 527.02 169.484 527.554 169.893L528.841 170.877C529.375 171.286 529.909 171.467 530.442 171.422C530.983 171.368 531.436 171.103 531.801 170.627Z" fill="#F2F2F2"/>
<path d="M543.989 159.523C543.497 160.014 542.975 160.374 542.423 160.603C541.871 160.814 541.31 160.907 540.741 160.881C540.173 160.838 539.604 160.677 539.035 160.396C538.458 160.107 537.902 159.696 537.367 159.161C536.841 158.635 536.434 158.092 536.146 157.532C535.866 156.963 535.709 156.399 535.675 155.839C535.633 155.271 535.722 154.716 535.943 154.173C536.156 153.622 536.504 153.105 536.988 152.622C537.507 152.105 538.046 151.745 538.606 151.542C539.167 151.339 539.723 151.267 540.275 151.327C540.826 151.387 541.366 151.561 541.892 151.85C542.418 152.122 542.91 152.487 543.368 152.945L543.903 153.48L539.482 157.891L539.648 158.056C540.131 158.54 540.657 158.795 541.226 158.821C541.787 158.838 542.334 158.58 542.869 158.046C543.277 157.639 543.524 157.224 543.609 156.8C543.702 156.368 543.719 155.918 543.66 155.452L545.519 155.555C545.63 156.208 545.557 156.882 545.302 157.577C545.047 158.256 544.609 158.904 543.989 159.523ZM538.236 153.819C537.803 154.251 537.603 154.739 537.637 155.281C537.67 155.824 537.916 156.325 538.375 156.783L538.476 156.885L541.203 154.165L541.088 154.05C540.63 153.592 540.146 153.337 539.637 153.286C539.128 153.217 538.661 153.395 538.236 153.819Z" fill="#F2F2F2"/>
<path d="M547.396 143.378L549.227 141.981L550.168 143.211L550.225 143.167C550.03 142.636 550.024 142.105 550.207 141.573C550.382 141.032 550.718 140.572 551.214 140.194C552.168 139.466 553.152 139.251 554.165 139.549C555.181 139.831 556.167 140.596 557.122 141.845C558.084 143.103 558.571 144.264 558.583 145.326C558.604 146.382 558.138 147.273 557.184 148.001C556.688 148.38 556.155 148.582 555.587 148.608C555.027 148.628 554.512 148.477 554.041 148.158L553.984 148.201L557.122 152.305L555.29 153.703L547.396 143.378ZM555.438 146.933C555.915 146.569 556.181 146.117 556.237 145.577C556.292 145.036 556.115 144.499 555.707 143.966L554.723 142.679C554.315 142.145 553.843 141.833 553.306 141.744C552.763 141.646 552.252 141.779 551.775 142.143C551.337 142.477 551.053 142.867 550.925 143.312C550.806 143.75 550.886 144.15 551.163 144.512L552.978 146.886C553.277 147.276 553.649 147.468 554.096 147.459C554.552 147.443 554.999 147.268 555.438 146.933Z" fill="#F2F2F2"/>
<path d="M568.468 140.167C567.789 140.574 567.187 140.703 566.664 140.555C566.141 140.407 565.694 140.024 565.324 139.407L559.632 129.934L561.609 128.75L567.522 138.593L568.588 137.954L569.533 139.528L568.468 140.167Z" fill="#F2F2F2"/>
<path d="M579.76 134.464C579.149 134.743 578.55 134.891 577.964 134.908C577.388 134.92 576.836 134.809 576.307 134.576C575.789 134.338 575.312 133.988 574.877 133.527C574.437 133.056 574.059 132.476 573.745 131.789C573.43 131.101 573.241 130.443 573.177 129.812C573.113 129.182 573.163 128.599 573.327 128.063C573.496 127.51 573.774 127.021 574.159 126.594C574.556 126.163 575.06 125.807 575.671 125.528C576.283 125.249 576.881 125.101 577.468 125.084C578.054 125.067 578.606 125.178 579.124 125.416C579.648 125.638 580.128 125.98 580.563 126.441C580.999 126.902 581.373 127.476 581.688 128.163C582.002 128.85 582.194 129.514 582.263 130.156C582.327 130.786 582.274 131.377 582.105 131.929C581.946 132.477 581.668 132.966 581.272 133.398C580.875 133.829 580.371 134.184 579.76 134.464ZM578.989 132.778C579.546 132.524 579.905 132.155 580.067 131.673C580.229 131.19 580.16 130.621 579.86 129.967L579.134 128.379C578.839 127.736 578.456 127.317 577.985 127.123C577.514 126.93 576.999 126.96 576.443 127.214C575.897 127.463 575.543 127.829 575.381 128.312C575.219 128.795 575.285 129.358 575.58 130.001L576.306 131.589C576.606 132.243 576.991 132.668 577.463 132.861C577.934 133.055 578.443 133.027 578.989 132.778Z" fill="#F2F2F2"/>
<path d="M594.129 118.812L596.193 118.174L595.859 129.861C595.844 130.217 595.797 130.533 595.719 130.808C595.656 131.092 595.551 131.338 595.402 131.547C595.253 131.756 595.052 131.938 594.798 132.092C594.544 132.246 594.234 132.379 593.867 132.493L592.542 132.902L591.998 131.149L593.615 130.649L593.639 129.267L587.507 120.86L589.691 120.185L592.728 124.444L594.016 126.532L594.119 126.5L594.035 124.04L594.129 118.812Z" fill="#F2F2F2"/>
<path d="M715.035 131.74C714.435 131.438 713.944 131.063 713.564 130.617C713.195 130.176 712.936 129.677 712.787 129.118C712.649 128.565 712.624 127.975 712.712 127.348C712.805 126.71 713.022 126.054 713.362 125.379C713.702 124.704 714.099 124.145 714.551 123.701C715.003 123.257 715.49 122.931 716.012 122.724C716.549 122.511 717.105 122.421 717.68 122.455C718.265 122.494 718.858 122.665 719.458 122.967C720.059 123.269 720.549 123.643 720.929 124.09C721.309 124.536 721.568 125.035 721.706 125.588C721.86 126.136 721.893 126.723 721.805 127.351C721.718 127.978 721.504 128.629 721.163 129.304C720.823 129.979 720.424 130.543 719.967 130.998C719.514 131.442 719.019 131.77 718.482 131.983C717.955 132.201 717.399 132.291 716.814 132.252C716.228 132.212 715.636 132.042 715.035 131.74ZM715.87 130.085C716.416 130.36 716.929 130.41 717.407 130.234C717.886 130.058 718.287 129.649 718.611 129.007L719.397 127.448C719.715 126.816 719.803 126.256 719.659 125.767C719.516 125.279 719.171 124.897 718.624 124.622C718.088 124.352 717.58 124.305 717.102 124.481C716.623 124.656 716.225 125.06 715.906 125.692L715.121 127.251C714.797 127.893 714.706 128.459 714.85 128.947C714.993 129.436 715.333 129.815 715.87 130.085Z" fill="#F2F2F2"/>
<path d="M731.467 129.858L733.383 131.138L732.522 132.424L732.582 132.464C733.022 132.109 733.523 131.932 734.086 131.933C734.656 131.924 735.2 132.093 735.719 132.44C736.717 133.107 737.238 133.967 737.283 135.022C737.345 136.073 736.938 137.252 736.064 138.557C735.182 139.873 734.24 140.708 733.237 141.062C732.244 141.423 731.249 141.27 730.251 140.603C729.732 140.257 729.368 139.819 729.159 139.289C728.96 138.767 728.936 138.231 729.087 137.683L729.027 137.643L726.153 141.934L724.237 140.653L731.467 129.858ZM730.699 138.608C731.198 138.942 731.712 139.047 732.242 138.925C732.771 138.803 733.223 138.463 733.597 137.905L734.498 136.559C734.872 136.001 735.015 135.454 734.926 134.918C734.843 134.372 734.553 133.933 734.054 133.599C733.594 133.293 733.134 133.151 732.671 133.173C732.218 133.202 731.864 133.406 731.611 133.785L729.948 136.267C729.675 136.676 729.614 137.09 729.766 137.509C729.929 137.935 730.24 138.302 730.699 138.608Z" fill="#F2F2F2"/>
<path d="M742.344 149.812C741.817 149.357 741.419 148.863 741.15 148.33C740.898 147.795 740.764 147.244 740.749 146.675C740.75 146.105 740.869 145.527 741.107 144.94C741.353 144.344 741.723 143.76 742.218 143.188C742.705 142.626 743.217 142.18 743.755 141.852C744.302 141.532 744.854 141.334 745.41 141.26C745.974 141.176 746.535 141.225 747.093 141.405C747.659 141.577 748.201 141.886 748.719 142.333C749.273 142.811 749.672 143.322 749.916 143.866C750.16 144.409 750.272 144.958 750.253 145.512C750.234 146.066 750.099 146.616 749.85 147.161C749.617 147.705 749.289 148.222 748.865 148.712L748.37 149.284L743.642 145.202L743.489 145.379C743.041 145.896 742.825 146.439 742.841 147.008C742.865 147.567 743.163 148.094 743.735 148.588C744.171 148.964 744.604 149.18 745.034 149.233C745.472 149.295 745.922 149.279 746.384 149.186L746.417 151.046C745.773 151.203 745.095 151.18 744.382 150.977C743.686 150.773 743.007 150.384 742.344 149.812ZM747.615 143.663C747.152 143.263 746.651 143.1 746.111 143.173C745.572 143.246 745.09 143.528 744.666 144.018L744.572 144.127L747.488 146.644L747.594 146.522C748.018 146.032 748.237 145.531 748.251 145.02C748.281 144.508 748.07 144.055 747.615 143.663Z" fill="#F2F2F2"/>
<path d="M751.69 158.276L758.591 151.899L760.156 153.589L758.729 154.909L758.79 154.975C759.016 154.848 759.253 154.751 759.502 154.684C759.768 154.618 760.036 154.599 760.307 154.626C760.578 154.654 760.847 154.732 761.114 154.861C761.389 154.999 761.653 155.205 761.905 155.478L762.248 155.847L760.648 157.326L760.159 156.797C759.629 156.225 759.146 155.871 758.709 155.735C758.273 155.6 757.865 155.707 757.486 156.057L753.256 159.966L751.69 158.276Z" fill="#F2F2F2"/>
<path d="M764.583 173.833C764.284 173.428 764.161 173.019 764.215 172.607C764.286 172.197 764.498 171.817 764.852 171.468L764.788 171.381C764.202 171.618 763.641 171.636 763.105 171.435C762.578 171.227 762.105 170.838 761.685 170.268C761.115 169.495 760.88 168.752 760.98 168.038C761.079 167.324 761.468 166.718 762.144 166.22C762.927 165.644 763.714 165.497 764.504 165.78C765.303 166.055 766.084 166.71 766.846 167.743L767.797 169.032L768.348 168.626C768.773 168.313 769.02 167.96 769.088 167.567C769.156 167.175 769.009 166.732 768.646 166.24C768.325 165.805 767.969 165.524 767.576 165.396C767.2 165.27 766.814 165.212 766.417 165.22L766.591 163.394C767.233 163.354 767.855 163.469 768.458 163.741C769.07 164.005 769.658 164.519 770.221 165.281C770.976 166.305 771.317 167.253 771.245 168.126C771.173 168.998 770.702 169.754 769.832 170.395L766.265 173.02L766.82 173.773L765.342 174.862L764.583 173.833ZM763.493 169.898C763.799 170.313 764.151 170.598 764.548 170.753C764.945 170.907 765.323 170.853 765.68 170.59L766.681 169.853L765.805 168.666C765.092 167.7 764.427 167.445 763.808 167.9L763.562 168.082C763.253 168.309 763.092 168.577 763.08 168.884C763.084 169.193 763.222 169.531 763.493 169.898Z" fill="#F2F2F2"/>
<path d="M771.273 184.319C770.874 183.635 770.745 183.009 770.886 182.441C771.044 181.878 771.455 181.403 772.119 181.017L776.586 178.419L775.888 177.221L777.475 176.298L777.838 176.92C778.013 177.22 778.198 177.383 778.393 177.409C778.605 177.438 778.851 177.371 779.131 177.208L780.516 176.403L781.559 178.191L779.333 179.485L780.303 181.149L778.715 182.072L777.746 180.408L772.797 183.287L773.694 184.826L772.106 185.75L771.273 184.319Z" fill="#F2F2F2"/>
<path d="M777.066 196.097C776.782 195.462 776.632 194.846 776.615 194.249C776.615 193.659 776.728 193.103 776.955 192.581C777.198 192.066 777.552 191.593 778.017 191.162C778.493 190.727 779.077 190.355 779.767 190.047C780.447 189.744 781.1 189.558 781.727 189.489C782.358 189.431 782.942 189.486 783.477 189.655C784.024 189.819 784.511 190.1 784.939 190.5C785.379 190.896 785.738 191.405 786.017 192.03C786.315 192.698 786.459 193.33 786.449 193.925C786.439 194.521 786.308 195.065 786.055 195.559C785.802 196.052 785.447 196.493 784.989 196.881C784.547 197.275 784.03 197.604 783.438 197.868L782.747 198.175L780.201 192.474L779.987 192.57C779.362 192.848 778.936 193.248 778.708 193.77C778.492 194.286 778.538 194.89 778.846 195.58C779.081 196.105 779.382 196.484 779.748 196.715C780.119 196.956 780.533 197.133 780.99 197.244L780.23 198.942C779.58 198.812 778.976 198.503 778.416 198.017C777.873 197.537 777.423 196.897 777.066 196.097ZM784.453 192.766C784.203 192.208 783.819 191.847 783.299 191.685C782.779 191.522 782.224 191.573 781.632 191.837L781.5 191.895L783.07 195.411L783.218 195.345C783.81 195.081 784.221 194.721 784.451 194.264C784.697 193.813 784.697 193.314 784.453 192.766Z" fill="#F2F2F2"/>
<path d="M717.062 393.878L712.939 385.438L715.011 384.428L715.698 385.835L715.779 385.795C715.725 385.275 715.8 384.771 716.003 384.285C716.207 383.799 716.627 383.401 717.263 383.09C717.846 382.806 718.416 382.702 718.974 382.777C719.532 382.852 720.053 383.125 720.537 383.597L720.569 383.581C720.488 383.033 720.59 382.489 720.875 381.95C721.165 381.395 721.65 380.952 722.329 380.621C723.16 380.216 723.936 380.191 724.658 380.547C725.39 380.897 726.014 381.601 726.53 382.657L729.137 387.992L727.065 389.002L724.561 383.877C723.971 382.67 723.223 382.287 722.317 382.729C722.112 382.829 721.928 382.958 721.766 383.118C721.608 383.261 721.483 383.429 721.39 383.621C721.303 383.797 721.258 383.992 721.256 384.207C721.248 384.411 721.3 384.626 721.41 384.852L724.135 390.43L722.063 391.44L719.56 386.315C718.97 385.107 718.222 384.725 717.316 385.167C717.121 385.261 716.943 385.388 716.78 385.548C716.623 385.691 716.498 385.859 716.405 386.051C716.317 386.227 716.267 386.425 716.254 386.645C716.247 386.848 716.298 387.064 716.409 387.29L719.134 392.868L717.062 393.878Z" fill="#F2F2F2"/>
<path d="M739.62 381.635C739.066 382.016 738.501 382.265 737.927 382.382C737.362 382.493 736.799 382.48 736.238 382.341C735.686 382.196 735.156 381.934 734.648 381.555C734.133 381.166 733.661 380.66 733.233 380.038C732.805 379.415 732.505 378.799 732.333 378.189C732.161 377.579 732.11 376.996 732.179 376.44C732.251 375.866 732.44 375.336 732.746 374.85C733.062 374.356 733.497 373.919 734.051 373.539C734.606 373.159 735.17 372.91 735.744 372.792C736.319 372.674 736.882 372.688 737.434 372.833C737.988 372.962 738.52 373.216 739.028 373.595C739.536 373.973 740.004 374.474 740.433 375.097C740.861 375.72 741.164 376.341 741.343 376.96C741.514 377.57 741.564 378.162 741.492 378.735C741.43 379.301 741.241 379.831 740.925 380.325C740.609 380.818 740.174 381.255 739.62 381.635ZM738.569 380.108C739.074 379.762 739.364 379.337 739.441 378.833C739.517 378.33 739.351 377.782 738.943 377.189L737.954 375.75C737.553 375.167 737.103 374.821 736.606 374.711C736.108 374.602 735.607 374.72 735.102 375.066C734.607 375.406 734.322 375.828 734.245 376.331C734.169 376.834 734.332 377.378 734.733 377.961L735.722 379.399C736.13 379.992 736.583 380.344 737.08 380.453C737.578 380.563 738.074 380.448 738.569 380.108Z" fill="#F2F2F2"/>
<path d="M749.928 373.678L743.659 366.68L745.377 365.144L746.421 366.31L746.488 366.25C746.295 365.747 746.239 365.234 746.319 364.712C746.4 364.173 746.713 363.66 747.259 363.172C747.984 362.524 748.751 362.265 749.56 362.395C750.369 362.524 751.166 363.027 751.95 363.903L755.913 368.327L754.196 369.863L750.388 365.613C749.94 365.112 749.514 364.817 749.111 364.727C748.708 364.636 748.301 364.775 747.889 365.143C747.71 365.303 747.56 365.486 747.438 365.691C747.317 365.88 747.233 366.084 747.187 366.302C747.142 366.503 747.143 366.711 747.191 366.926C747.23 367.132 747.334 367.329 747.502 367.517L751.646 372.142L749.928 373.678Z" fill="#F2F2F2"/>
<path d="M754.783 354.046C754.46 354.401 754.146 354.586 753.841 354.601C753.544 354.607 753.271 354.497 753.022 354.271L752.755 354.03C752.506 353.804 752.37 353.543 752.347 353.247C752.332 352.942 752.486 352.612 752.809 352.257C753.123 351.91 753.433 351.73 753.739 351.715C754.044 351.7 754.321 351.805 754.57 352.031L754.837 352.273C755.086 352.498 755.218 352.764 755.232 353.069C755.247 353.374 755.097 353.699 754.783 354.046ZM755.022 355.817L756.571 354.112L763.533 360.422L761.984 362.127L755.022 355.817Z" fill="#F2F2F2"/>
<path d="M770.568 351.84C770.089 352.471 769.56 352.831 768.981 352.919C768.4 352.99 767.803 352.794 767.19 352.33L763.072 349.21L762.234 350.314L760.77 349.205L761.206 348.632C761.416 348.354 761.495 348.121 761.444 347.931C761.389 347.725 761.233 347.523 760.975 347.328L759.698 346.36L760.949 344.712L763.001 346.266L764.166 344.733L765.629 345.841L764.465 347.375L769.028 350.832L770.106 349.413L771.569 350.522L770.568 351.84Z" fill="#F2F2F2"/>
<path d="M778.222 340.877C777.878 341.454 777.47 341.916 776.997 342.263C776.531 342.6 776.014 342.823 775.446 342.932C774.884 343.031 774.293 343.014 773.673 342.883C773.042 342.745 772.402 342.483 771.752 342.097C771.102 341.71 770.571 341.276 770.16 340.794C769.748 340.312 769.457 339.804 769.286 339.27C769.111 338.72 769.061 338.159 769.135 337.589C769.215 337.009 769.428 336.43 769.771 335.853C770.115 335.276 770.523 334.814 770.996 334.466C771.468 334.119 771.985 333.896 772.547 333.798C773.105 333.682 773.693 333.691 774.314 333.822C774.934 333.954 775.569 334.213 776.219 334.599C776.869 334.985 777.405 335.423 777.827 335.911C778.238 336.392 778.532 336.909 778.707 337.459C778.888 338 778.938 338.56 778.858 339.14C778.777 339.721 778.565 340.299 778.222 340.877ZM776.627 339.929C776.941 339.403 777.026 338.896 776.885 338.407C776.743 337.918 776.362 337.489 775.743 337.121L774.242 336.229C773.633 335.867 773.08 335.74 772.582 335.849C772.084 335.958 771.679 336.275 771.365 336.801C771.058 337.316 770.976 337.818 771.118 338.307C771.259 338.796 771.635 339.222 772.243 339.584L773.745 340.476C774.364 340.844 774.922 340.974 775.42 340.865C775.918 340.756 776.32 340.444 776.627 339.929Z" fill="#F2F2F2"/>
<path d="M784.202 329.337L775.621 325.5L776.563 323.399L778.338 324.192L778.375 324.11C778.169 323.953 777.987 323.772 777.827 323.57C777.662 323.351 777.539 323.112 777.458 322.853C777.377 322.593 777.344 322.316 777.358 322.02C777.377 321.713 777.463 321.39 777.615 321.05L777.821 320.591L779.81 321.48L779.515 322.137C779.197 322.848 779.06 323.431 779.107 323.886C779.153 324.34 779.412 324.672 779.883 324.883L785.143 327.235L784.202 329.337Z" fill="#F2F2F2"/>
<path d="M538.283 353.94L539.662 355.785L538.42 356.71L538.463 356.768C538.997 356.58 539.529 356.58 540.059 356.768C540.599 356.949 541.056 357.29 541.429 357.789C542.147 358.75 542.351 359.735 542.041 360.745C541.748 361.756 540.971 362.732 539.711 363.672C538.441 364.619 537.274 365.092 536.21 365.092C535.153 365.102 534.266 364.626 533.548 363.665C533.174 363.166 532.977 362.632 532.957 362.063C532.944 361.504 533.1 360.991 533.426 360.524L533.383 360.466L529.24 363.555L527.861 361.71L538.283 353.94ZM534.636 361.934C534.995 362.414 535.445 362.685 535.985 362.746C536.525 362.807 537.065 362.637 537.603 362.235L538.903 361.267C539.441 360.865 539.758 360.397 539.853 359.862C539.958 359.32 539.831 358.809 539.472 358.328C539.141 357.886 538.754 357.599 538.31 357.466C537.874 357.342 537.472 357.417 537.107 357.69L534.711 359.476C534.316 359.771 534.121 360.141 534.124 360.587C534.135 361.043 534.306 361.492 534.636 361.934Z" fill="#F2F2F2"/>
<path d="M543.182 374.009C542.606 373.465 542.319 372.922 542.321 372.379C542.323 371.836 542.571 371.303 543.066 370.78L550.664 362.752L552.339 364.334L544.444 372.675L545.347 373.528L544.084 374.862L543.182 374.009Z" fill="#F2F2F2"/>
<path d="M556.039 383.873C555.619 383.595 555.363 383.253 555.272 382.847C555.198 382.438 555.266 382.009 555.478 381.559L555.388 381.5C554.92 381.924 554.399 382.133 553.827 382.128C553.261 382.113 552.682 381.91 552.092 381.519C551.291 380.99 550.815 380.372 550.663 379.667C550.512 378.963 550.668 378.26 551.132 377.56C551.669 376.75 552.358 376.343 553.197 376.337C554.042 376.321 555.001 376.667 556.072 377.376L557.408 378.26L557.786 377.69C558.078 377.251 558.188 376.834 558.117 376.442C558.046 376.05 557.755 375.685 557.245 375.347C556.795 375.049 556.363 374.907 555.95 374.922C555.554 374.933 555.171 375.01 554.802 375.154L554.338 373.38C554.926 373.122 555.55 373.017 556.21 373.065C556.876 373.103 557.604 373.383 558.395 373.906C559.456 374.609 560.102 375.382 560.334 376.226C560.566 377.07 560.384 377.942 559.787 378.842L557.339 382.532L558.12 383.048L557.105 384.578L556.039 383.873ZM553.663 380.552C554.093 380.837 554.521 380.983 554.947 380.992C555.374 381.001 555.71 380.82 555.955 380.45L556.641 379.415L555.411 378.601C554.41 377.938 553.697 377.927 553.273 378.567L553.103 378.822C552.891 379.142 552.832 379.448 552.926 379.741C553.037 380.03 553.282 380.3 553.663 380.552Z" fill="#F2F2F2"/>
<path d="M564.754 388.648L568.252 379.93L570.391 380.786L569.809 382.239L569.892 382.273C570.258 381.876 570.693 381.598 571.197 381.438C571.717 381.271 572.316 381.324 572.996 381.596C573.899 381.957 574.471 382.529 574.714 383.31C574.956 384.092 574.859 385.029 574.421 386.12L572.21 391.631L570.07 390.775L572.194 385.481C572.444 384.857 572.52 384.345 572.423 383.944C572.325 383.543 572.02 383.24 571.507 383.035C571.284 382.946 571.053 382.892 570.815 382.874C570.592 382.85 570.372 382.865 570.156 382.921C569.955 382.97 569.769 383.063 569.597 383.201C569.43 383.328 569.299 383.508 569.206 383.742L566.894 389.504L564.754 388.648Z" fill="#F2F2F2"/>
<rect opacity="0.5" x="0.127075" y="261" width="1" height="195" transform="rotate(-90 0.127075 261)" fill="#BBB9B9"/>
<rect opacity="0.5" x="265" y="521" width="1" height="195" transform="rotate(180 265 521)" fill="#BBB9B9"/>
<rect opacity="0.5" x="652" y="521" width="1" height="195" transform="rotate(180 652 521)" fill="#BBB9B9"/>
<rect opacity="0.5" x="264" y="0.00012207" width="1" height="195" fill="#BBB9B9"/>
<rect opacity="0.5" x="651" y="0.00012207" width="1" height="195" fill="#BBB9B9"/>
<rect opacity="0.5" x="457.5" y="109" width="1" height="301" fill="#BBB9B9"/>
<rect opacity="0.5" x="720" y="261" width="1" height="195" transform="rotate(-90 720 261)" fill="#BBB9B9"/>
<defs>
<filter id="filter0_i" x="651.559" y="245.468" width="196.368" height="193.468" filterUnits="userSpaceOnUse" color-interpolation-filters="sRGB">
<feFlood flood-opacity="0" result="BackgroundImageFix"/>
<feBlend mode="normal" in="SourceGraphic" in2="BackgroundImageFix" result="shape"/>
<feColorMatrix in="SourceAlpha" type="matrix" values="0 0 0 0 0 0 0 0 0 0 0 0 0 0 0 0 0 0 127 0" result="hardAlpha"/>
<feOffset dx="15" dy="-15"/>
<feGaussianBlur stdDeviation="15"/>
<feComposite in2="hardAlpha" operator="arithmetic" k2="-1" k3="1"/>
<feColorMatrix type="matrix" values="0 0 0 0 0 0 0 0 0 0 0 0 0 0 0 0 0 0 0.15 0"/>
<feBlend mode="normal" in2="shape" result="effect1_innerShadow"/>
</filter>
</defs>
</svg>
